<svg id="svg" xmlns="http://www.w3.org/2000/svg" xmlns:xlink="http://www.w3.org/1999/xlink" width="400" height="282.89623717217785" viewBox="0, 0, 400,282.89623717217785"><g id="svgg"><path id="path0" d="M176.454 29.421 C 174.515 29.479,173.116 29.603,170.296 29.967 C 168.290 30.226,166.006 30.520,165.222 30.621 C 131.996 34.892,104.292 57.664,94.969 88.367 C 87.750 112.140,91.019 136.083,104.344 157.046 C 108.382 163.400,114.851 170.766,119.585 174.401 C 119.602 174.413,117.492 178.447,114.896 183.364 L 110.176 192.303 104.407 192.306 C 100.508 192.308,98.598 192.348,98.517 192.430 C 98.409 192.538,93.501 201.582,93.501 201.673 C 93.501 201.693,101.932 201.710,112.237 201.710 L 130.974 201.710 133.434 197.149 C 135.093 194.072,135.852 192.559,135.763 192.502 C 135.692 192.456,131.872 192.403,127.276 192.386 L 118.919 192.355 119.845 190.562 C 120.354 189.575,121.853 186.731,123.175 184.240 L 125.580 179.711 125.874 180.007 C 126.341 180.476,129.166 182.572,130.817 183.674 C 140.576 190.189,150.236 193.697,162.714 195.259 C 165.896 195.657,177.170 196.658,177.257 196.550 C 177.270 196.535,177.872 195.239,178.595 193.672 C 183.151 183.800,191.156 167.547,201.369 147.434 C 203.391 143.452,207.483 135.345,210.462 129.418 C 213.442 123.492,216.188 118.079,216.564 117.389 C 218.182 114.421,220.245 110.741,220.525 110.319 C 220.980 109.636,222.028 107.737,221.978 107.687 C 221.954 107.663,212.061 107.560,199.992 107.458 C 187.924 107.357,178.034 107.259,178.015 107.241 C 177.996 107.223,181.909 99.639,186.711 90.387 L 195.442 73.566 195.412 69.585 L 195.382 65.603 184.208 86.637 C 172.975 107.780,171.494 110.580,171.494 110.674 C 171.494 110.702,174.072 110.696,177.223 110.662 C 187.293 110.551,215.187 110.359,215.228 110.401 C 215.292 110.464,210.298 120.383,209.213 122.349 C 203.091 133.443,196.621 145.894,189.274 160.718 C 182.030 175.335,179.097 181.556,175.862 189.167 C 175.254 190.597,174.702 191.747,174.636 191.723 C 174.570 191.699,173.664 191.602,172.623 191.508 C 171.581 191.414,169.991 191.211,169.088 191.056 C 168.185 190.901,165.291 190.490,162.657 190.142 C 151.841 188.715,141.453 184.751,131.927 178.417 C 129.991 177.129,127.826 175.534,127.869 175.428 C 127.895 175.365,133.885 164.102,141.182 150.399 L 154.448 125.485 177.019 125.428 L 199.589 125.371 201.100 121.950 C 201.930 120.068,202.612 118.491,202.616 118.444 C 202.620 118.397,192.623 118.358,180.402 118.358 L 158.181 118.358 158.121 117.702 L 158.060 117.047 160.872 111.739 C 169.522 95.409,194.592 48.351,194.641 48.353 C 194.672 48.354,203.036 63.348,213.227 81.673 C 223.418 99.999,241.363 132.259,253.106 153.363 L 274.455 191.733 269.839 191.763 C 267.300 191.779,265.222 191.824,265.222 191.863 C 265.222 191.901,266.465 194.107,267.983 196.764 L 270.744 201.596 290.677 201.596 L 310.610 201.596 310.449 201.340 C 310.361 201.199,309.099 198.992,307.646 196.437 L 305.004 191.790 298.312 191.786 L 291.619 191.782 248.274 114.762 L 204.928 37.742 212.220 37.742 L 219.513 37.742 219.477 34.863 C 219.432 31.217,219.182 30.560,217.503 29.665 L 216.933 29.361 197.948 29.354 C 187.506 29.350,177.834 29.380,176.454 29.421 M173.925 35.448 C 171.966 38.970,107.341 152.674,107.298 152.676 C 107.114 152.686,104.431 147.636,103.295 145.141 C 85.223 105.452,103.456 58.414,143.558 41.273 C 152.402 37.492,160.997 35.529,171.722 34.838 C 172.945 34.759,174.039 34.688,174.154 34.679 C 174.330 34.666,174.296 34.782,173.925 35.448 M191.676 37.796 C 191.676 37.869,121.999 169.935,121.908 170.035 C 121.641 170.327,112.565 160.784,112.614 160.263 C 112.641 159.979,175.776 44.866,176.201 44.328 C 176.287 44.219,177.149 42.693,178.116 40.937 L 179.875 37.746 185.775 37.744 C 189.021 37.743,191.676 37.766,191.676 37.796 M172.771 215.749 C 166.793 216.546,163.495 220.379,165.108 224.655 C 166.048 227.147,168.738 228.773,173.717 229.861 C 174.595 230.052,176.153 230.394,177.178 230.619 C 180.273 231.299,181.290 231.810,181.704 232.893 C 183.112 236.580,174.096 238.406,170.943 235.072 C 170.390 234.488,169.762 233.337,169.615 232.640 C 169.557 232.362,169.476 232.269,169.295 232.269 C 168.918 232.269,164.655 232.603,164.107 232.676 L 163.618 232.740 163.693 233.160 C 164.640 238.482,168.578 240.987,175.998 240.986 C 183.325 240.985,187.447 238.550,187.872 233.972 C 188.304 229.326,185.473 227.127,176.730 225.318 C 172.155 224.371,170.745 223.734,170.515 222.512 C 170.266 221.182,171.715 220.211,174.372 219.929 C 177.898 219.553,180.101 220.526,180.808 222.769 L 181.008 223.401 183.235 223.329 C 184.460 223.289,185.808 223.226,186.231 223.190 L 187.001 223.124 186.999 222.765 C 186.986 219.994,184.484 217.249,181.067 216.259 C 179.234 215.727,174.921 215.462,172.771 215.749 M231.481 215.745 C 225.027 216.581,220.886 220.601,220.172 226.722 C 219.163 235.369,224.991 241.278,234.265 241.011 C 238.914 240.878,242.017 239.533,244.188 236.712 C 245.038 235.607,246.196 233.250,245.981 233.061 C 245.887 232.978,240.231 231.556,240.206 231.609 C 240.198 231.627,240.097 231.924,239.982 232.269 C 237.885 238.566,228.414 238.284,226.745 231.875 C 226.050 229.207,226.261 225.520,227.224 223.489 C 229.461 218.770,237.537 218.587,239.698 223.206 C 239.889 223.613,240.078 223.944,240.119 223.943 C 240.160 223.942,241.477 223.692,243.044 223.388 C 246.354 222.745,246.148 222.923,245.387 221.373 C 243.308 217.135,237.839 214.922,231.481 215.745 M111.285 228.236 C 108.120 234.925,105.513 240.442,105.492 240.497 C 105.470 240.553,106.872 240.583,108.675 240.566 L 111.897 240.536 113.113 237.799 L 114.329 235.063 120.262 235.033 L 126.196 235.004 127.491 237.798 L 128.787 240.593 132.067 240.593 C 133.872 240.593,135.348 240.574,135.348 240.552 C 135.348 240.529,132.684 235.026,129.429 228.322 L 123.510 216.135 120.275 216.104 L 117.041 216.074 111.285 228.236 M279.361 228.335 L 279.361 240.593 282.383 240.593 L 285.405 240.593 285.405 228.335 L 285.405 216.078 282.383 216.078 L 279.361 216.078 279.361 228.335 M122.259 226.425 L 124.253 230.844 120.262 230.874 C 118.067 230.890,116.254 230.887,116.234 230.868 C 116.176 230.810,120.105 222.007,120.189 222.007 C 120.230 222.007,121.162 223.995,122.259 226.425 " stroke="none" fill="#000000" fill-rule="evenodd"></path></g></svg>